# generated sample model (tudursguns) - see README for the axis convention
o body
vt 0.31250 0.56250
vt 0.43750 0.56250
vt 0.43750 0.68750
vt 0.31250 0.68750
v -0.0100 -0.0400 0.0800
v -0.0100 -0.0400 -0.0800
v -0.0100 0.0400 -0.0800
v -0.0100 0.0400 0.0800
vn 1 0 0
f 1/1/1 2/2/1 3/3/1 4/4/1
v -0.1000 -0.0400 -0.0800
v -0.1000 -0.0400 0.0800
v -0.1000 0.0400 0.0800
v -0.1000 0.0400 -0.0800
vn -1 0 0
f 5/1/2 6/2/2 7/3/2 8/4/2
v -0.1000 0.0400 0.0800
v -0.0100 0.0400 0.0800
v -0.0100 0.0400 -0.0800
v -0.1000 0.0400 -0.0800
vn 0 1 0
f 9/1/3 10/2/3 11/3/3 12/4/3
v -0.1000 -0.0400 -0.0800
v -0.0100 -0.0400 -0.0800
v -0.0100 -0.0400 0.0800
v -0.1000 -0.0400 0.0800
vn 0 -1 0
f 13/1/4 14/2/4 15/3/4 16/4/4
v -0.1000 -0.0400 0.0800
v -0.0100 -0.0400 0.0800
v -0.0100 0.0400 0.0800
v -0.1000 0.0400 0.0800
vn 0 0 1
f 17/1/5 18/2/5 19/3/5 20/4/5
v -0.0100 -0.0400 -0.0800
v -0.1000 -0.0400 -0.0800
v -0.1000 0.0400 -0.0800
v -0.0100 0.0400 -0.0800
vn 0 0 -1
f 21/1/6 22/2/6 23/3/6 24/4/6
vt 0.31250 0.56250
vt 0.43750 0.56250
vt 0.43750 0.68750
vt 0.31250 0.68750
v 0.1000 -0.0400 0.0800
v 0.1000 -0.0400 -0.0800
v 0.1000 0.0400 -0.0800
v 0.1000 0.0400 0.0800
vn 1 0 0
f 25/5/7 26/6/7 27/7/7 28/8/7
v 0.0100 -0.0400 -0.0800
v 0.0100 -0.0400 0.0800
v 0.0100 0.0400 0.0800
v 0.0100 0.0400 -0.0800
vn -1 0 0
f 29/5/8 30/6/8 31/7/8 32/8/8
v 0.0100 0.0400 0.0800
v 0.1000 0.0400 0.0800
v 0.1000 0.0400 -0.0800
v 0.0100 0.0400 -0.0800
vn 0 1 0
f 33/5/9 34/6/9 35/7/9 36/8/9
v 0.0100 -0.0400 -0.0800
v 0.1000 -0.0400 -0.0800
v 0.1000 -0.0400 0.0800
v 0.0100 -0.0400 0.0800
vn 0 -1 0
f 37/5/10 38/6/10 39/7/10 40/8/10
v 0.0100 -0.0400 0.0800
v 0.1000 -0.0400 0.0800
v 0.1000 0.0400 0.0800
v 0.0100 0.0400 0.0800
vn 0 0 1
f 41/5/11 42/6/11 43/7/11 44/8/11
v 0.1000 -0.0400 -0.0800
v 0.0100 -0.0400 -0.0800
v 0.0100 0.0400 -0.0800
v 0.1000 0.0400 -0.0800
vn 0 0 -1
f 45/5/12 46/6/12 47/7/12 48/8/12
vt 0.06250 0.81250
vt 0.18750 0.81250
vt 0.18750 0.93750
vt 0.06250 0.93750
v 0.0200 -0.0200 0.0300
v 0.0200 -0.0200 -0.0300
v 0.0200 0.0200 -0.0300
v 0.0200 0.0200 0.0300
vn 1 0 0
f 49/9/13 50/10/13 51/11/13 52/12/13
v -0.0200 -0.0200 -0.0300
v -0.0200 -0.0200 0.0300
v -0.0200 0.0200 0.0300
v -0.0200 0.0200 -0.0300
vn -1 0 0
f 53/9/14 54/10/14 55/11/14 56/12/14
v -0.0200 0.0200 0.0300
v 0.0200 0.0200 0.0300
v 0.0200 0.0200 -0.0300
v -0.0200 0.0200 -0.0300
vn 0 1 0
f 57/9/15 58/10/15 59/11/15 60/12/15
v -0.0200 -0.0200 -0.0300
v 0.0200 -0.0200 -0.0300
v 0.0200 -0.0200 0.0300
v -0.0200 -0.0200 0.0300
vn 0 -1 0
f 61/9/16 62/10/16 63/11/16 64/12/16
v -0.0200 -0.0200 0.0300
v 0.0200 -0.0200 0.0300
v 0.0200 0.0200 0.0300
v -0.0200 0.0200 0.0300
vn 0 0 1
f 65/9/17 66/10/17 67/11/17 68/12/17
v 0.0200 -0.0200 -0.0300
v -0.0200 -0.0200 -0.0300
v -0.0200 0.0200 -0.0300
v 0.0200 0.0200 -0.0300
vn 0 0 -1
f 69/9/18 70/10/18 71/11/18 72/12/18
o lens
vt 0.06250 0.31250
vt 0.18750 0.31250
vt 0.18750 0.43750
vt 0.06250 0.43750
v -0.0200 -0.0300 -0.0800
v -0.0200 -0.0300 -0.0850
v -0.0200 0.0300 -0.0850
v -0.0200 0.0300 -0.0800
vn 1 0 0
f 73/13/19 74/14/19 75/15/19 76/16/19
v -0.0900 -0.0300 -0.0850
v -0.0900 -0.0300 -0.0800
v -0.0900 0.0300 -0.0800
v -0.0900 0.0300 -0.0850
vn -1 0 0
f 77/13/20 78/14/20 79/15/20 80/16/20
v -0.0900 0.0300 -0.0800
v -0.0200 0.0300 -0.0800
v -0.0200 0.0300 -0.0850
v -0.0900 0.0300 -0.0850
vn 0 1 0
f 81/13/21 82/14/21 83/15/21 84/16/21
v -0.0900 -0.0300 -0.0850
v -0.0200 -0.0300 -0.0850
v -0.0200 -0.0300 -0.0800
v -0.0900 -0.0300 -0.0800
vn 0 -1 0
f 85/13/22 86/14/22 87/15/22 88/16/22
v -0.0900 -0.0300 -0.0800
v -0.0200 -0.0300 -0.0800
v -0.0200 0.0300 -0.0800
v -0.0900 0.0300 -0.0800
vn 0 0 1
f 89/13/23 90/14/23 91/15/23 92/16/23
v -0.0200 -0.0300 -0.0850
v -0.0900 -0.0300 -0.0850
v -0.0900 0.0300 -0.0850
v -0.0200 0.0300 -0.0850
vn 0 0 -1
f 93/13/24 94/14/24 95/15/24 96/16/24
vt 0.06250 0.31250
vt 0.18750 0.31250
vt 0.18750 0.43750
vt 0.06250 0.43750
v 0.0900 -0.0300 -0.0800
v 0.0900 -0.0300 -0.0850
v 0.0900 0.0300 -0.0850
v 0.0900 0.0300 -0.0800
vn 1 0 0
f 97/17/25 98/18/25 99/19/25 100/20/25
v 0.0200 -0.0300 -0.0850
v 0.0200 -0.0300 -0.0800
v 0.0200 0.0300 -0.0800
v 0.0200 0.0300 -0.0850
vn -1 0 0
f 101/17/26 102/18/26 103/19/26 104/20/26
v 0.0200 0.0300 -0.0800
v 0.0900 0.0300 -0.0800
v 0.0900 0.0300 -0.0850
v 0.0200 0.0300 -0.0850
vn 0 1 0
f 105/17/27 106/18/27 107/19/27 108/20/27
v 0.0200 -0.0300 -0.0850
v 0.0900 -0.0300 -0.0850
v 0.0900 -0.0300 -0.0800
v 0.0200 -0.0300 -0.0800
vn 0 -1 0
f 109/17/28 110/18/28 111/19/28 112/20/28
v 0.0200 -0.0300 -0.0800
v 0.0900 -0.0300 -0.0800
v 0.0900 0.0300 -0.0800
v 0.0200 0.0300 -0.0800
vn 0 0 1
f 113/17/29 114/18/29 115/19/29 116/20/29
v 0.0900 -0.0300 -0.0850
v 0.0200 -0.0300 -0.0850
v 0.0200 0.0300 -0.0850
v 0.0900 0.0300 -0.0850
vn 0 0 -1
f 117/17/30 118/18/30 119/19/30 120/20/30
