# generated sample model (tudursguns) - see README for the axis convention
o stock
vt 0.56250 0.81250
vt 0.68750 0.81250
vt 0.68750 0.93750
vt 0.56250 0.93750
v 0.0380 -0.0900 0.5500
v 0.0380 -0.0900 0.1500
v 0.0380 0.0600 0.1500
v 0.0380 0.0600 0.5500
vn 1 0 0
f 1/1/1 2/2/1 3/3/1 4/4/1
v -0.0380 -0.0900 0.1500
v -0.0380 -0.0900 0.5500
v -0.0380 0.0600 0.5500
v -0.0380 0.0600 0.1500
vn -1 0 0
f 5/1/2 6/2/2 7/3/2 8/4/2
v -0.0380 0.0600 0.5500
v 0.0380 0.0600 0.5500
v 0.0380 0.0600 0.1500
v -0.0380 0.0600 0.1500
vn 0 1 0
f 9/1/3 10/2/3 11/3/3 12/4/3
v -0.0380 -0.0900 0.1500
v 0.0380 -0.0900 0.1500
v 0.0380 -0.0900 0.5500
v -0.0380 -0.0900 0.5500
vn 0 -1 0
f 13/1/4 14/2/4 15/3/4 16/4/4
v -0.0380 -0.0900 0.5500
v 0.0380 -0.0900 0.5500
v 0.0380 0.0600 0.5500
v -0.0380 0.0600 0.5500
vn 0 0 1
f 17/1/5 18/2/5 19/3/5 20/4/5
v 0.0380 -0.0900 0.1500
v -0.0380 -0.0900 0.1500
v -0.0380 0.0600 0.1500
v 0.0380 0.0600 0.1500
vn 0 0 -1
f 21/1/6 22/2/6 23/3/6 24/4/6
vt 0.06250 0.81250
vt 0.18750 0.81250
vt 0.18750 0.93750
vt 0.06250 0.93750
v 0.0400 -0.1000 0.5500
v 0.0400 -0.1000 0.5200
v 0.0400 0.0300 0.5200
v 0.0400 0.0300 0.5500
vn 1 0 0
f 25/5/7 26/6/7 27/7/7 28/8/7
v -0.0400 -0.1000 0.5200
v -0.0400 -0.1000 0.5500
v -0.0400 0.0300 0.5500
v -0.0400 0.0300 0.5200
vn -1 0 0
f 29/5/8 30/6/8 31/7/8 32/8/8
v -0.0400 0.0300 0.5500
v 0.0400 0.0300 0.5500
v 0.0400 0.0300 0.5200
v -0.0400 0.0300 0.5200
vn 0 1 0
f 33/5/9 34/6/9 35/7/9 36/8/9
v -0.0400 -0.1000 0.5200
v 0.0400 -0.1000 0.5200
v 0.0400 -0.1000 0.5500
v -0.0400 -0.1000 0.5500
vn 0 -1 0
f 37/5/10 38/6/10 39/7/10 40/8/10
v -0.0400 -0.1000 0.5500
v 0.0400 -0.1000 0.5500
v 0.0400 0.0300 0.5500
v -0.0400 0.0300 0.5500
vn 0 0 1
f 41/5/11 42/6/11 43/7/11 44/8/11
v 0.0400 -0.1000 0.5200
v -0.0400 -0.1000 0.5200
v -0.0400 0.0300 0.5200
v 0.0400 0.0300 0.5200
vn 0 0 -1
f 45/5/12 46/6/12 47/7/12 48/8/12
o receiver
vt 0.06250 0.81250
vt 0.18750 0.81250
vt 0.18750 0.93750
vt 0.06250 0.93750
v 0.0320 -0.0200 0.1500
v 0.0320 -0.0200 -0.1800
v 0.0320 0.0800 -0.1800
v 0.0320 0.0800 0.1500
vn 1 0 0
f 49/9/13 50/10/13 51/11/13 52/12/13
v -0.0320 -0.0200 -0.1800
v -0.0320 -0.0200 0.1500
v -0.0320 0.0800 0.1500
v -0.0320 0.0800 -0.1800
vn -1 0 0
f 53/9/14 54/10/14 55/11/14 56/12/14
v -0.0320 0.0800 0.1500
v 0.0320 0.0800 0.1500
v 0.0320 0.0800 -0.1800
v -0.0320 0.0800 -0.1800
vn 0 1 0
f 57/9/15 58/10/15 59/11/15 60/12/15
v -0.0320 -0.0200 -0.1800
v 0.0320 -0.0200 -0.1800
v 0.0320 -0.0200 0.1500
v -0.0320 -0.0200 0.1500
vn 0 -1 0
f 61/9/16 62/10/16 63/11/16 64/12/16
v -0.0320 -0.0200 0.1500
v 0.0320 -0.0200 0.1500
v 0.0320 0.0800 0.1500
v -0.0320 0.0800 0.1500
vn 0 0 1
f 65/9/17 66/10/17 67/11/17 68/12/17
v 0.0320 -0.0200 -0.1800
v -0.0320 -0.0200 -0.1800
v -0.0320 0.0800 -0.1800
v 0.0320 0.0800 -0.1800
vn 0 0 -1
f 69/9/18 70/10/18 71/11/18 72/12/18
o barrel
vt 0.31250 0.81250
vt 0.43750 0.81250
vt 0.43750 0.93750
vt 0.31250 0.93750
v 0.0160 0.0200 -0.1800
v 0.0160 0.0200 -0.9500
v 0.0160 0.0520 -0.9500
v 0.0160 0.0520 -0.1800
vn 1 0 0
f 73/13/19 74/14/19 75/15/19 76/16/19
v -0.0160 0.0200 -0.9500
v -0.0160 0.0200 -0.1800
v -0.0160 0.0520 -0.1800
v -0.0160 0.0520 -0.9500
vn -1 0 0
f 77/13/20 78/14/20 79/15/20 80/16/20
v -0.0160 0.0520 -0.1800
v 0.0160 0.0520 -0.1800
v 0.0160 0.0520 -0.9500
v -0.0160 0.0520 -0.9500
vn 0 1 0
f 81/13/21 82/14/21 83/15/21 84/16/21
v -0.0160 0.0200 -0.9500
v 0.0160 0.0200 -0.9500
v 0.0160 0.0200 -0.1800
v -0.0160 0.0200 -0.1800
vn 0 -1 0
f 85/13/22 86/14/22 87/15/22 88/16/22
v -0.0160 0.0200 -0.1800
v 0.0160 0.0200 -0.1800
v 0.0160 0.0520 -0.1800
v -0.0160 0.0520 -0.1800
vn 0 0 1
f 89/13/23 90/14/23 91/15/23 92/16/23
v 0.0160 0.0200 -0.9500
v -0.0160 0.0200 -0.9500
v -0.0160 0.0520 -0.9500
v 0.0160 0.0520 -0.9500
vn 0 0 -1
f 93/13/24 94/14/24 95/15/24 96/16/24
o handguard
vt 0.56250 0.81250
vt 0.68750 0.81250
vt 0.68750 0.93750
vt 0.56250 0.93750
v 0.0380 -0.0350 -0.1800
v 0.0380 -0.0350 -0.8500
v 0.0380 0.0450 -0.8500
v 0.0380 0.0450 -0.1800
vn 1 0 0
f 97/17/25 98/18/25 99/19/25 100/20/25
v -0.0380 -0.0350 -0.8500
v -0.0380 -0.0350 -0.1800
v -0.0380 0.0450 -0.1800
v -0.0380 0.0450 -0.8500
vn -1 0 0
f 101/17/26 102/18/26 103/19/26 104/20/26
v -0.0380 0.0450 -0.1800
v 0.0380 0.0450 -0.1800
v 0.0380 0.0450 -0.8500
v -0.0380 0.0450 -0.8500
vn 0 1 0
f 105/17/27 106/18/27 107/19/27 108/20/27
v -0.0380 -0.0350 -0.8500
v 0.0380 -0.0350 -0.8500
v 0.0380 -0.0350 -0.1800
v -0.0380 -0.0350 -0.1800
vn 0 -1 0
f 109/17/28 110/18/28 111/19/28 112/20/28
v -0.0380 -0.0350 -0.1800
v 0.0380 -0.0350 -0.1800
v 0.0380 0.0450 -0.1800
v -0.0380 0.0450 -0.1800
vn 0 0 1
f 113/17/29 114/18/29 115/19/29 116/20/29
v 0.0380 -0.0350 -0.8500
v -0.0380 -0.0350 -0.8500
v -0.0380 0.0450 -0.8500
v 0.0380 0.0450 -0.8500
vn 0 0 -1
f 117/17/30 118/18/30 119/19/30 120/20/30
vt 0.06250 0.81250
vt 0.18750 0.81250
vt 0.18750 0.93750
vt 0.06250 0.93750
v 0.0400 -0.0400 -0.6000
v 0.0400 -0.0400 -0.6200
v 0.0400 0.0500 -0.6200
v 0.0400 0.0500 -0.6000
vn 1 0 0
f 121/21/31 122/22/31 123/23/31 124/24/31
v -0.0400 -0.0400 -0.6200
v -0.0400 -0.0400 -0.6000
v -0.0400 0.0500 -0.6000
v -0.0400 0.0500 -0.6200
vn -1 0 0
f 125/21/32 126/22/32 127/23/32 128/24/32
v -0.0400 0.0500 -0.6000
v 0.0400 0.0500 -0.6000
v 0.0400 0.0500 -0.6200
v -0.0400 0.0500 -0.6200
vn 0 1 0
f 129/21/33 130/22/33 131/23/33 132/24/33
v -0.0400 -0.0400 -0.6200
v 0.0400 -0.0400 -0.6200
v 0.0400 -0.0400 -0.6000
v -0.0400 -0.0400 -0.6000
vn 0 -1 0
f 133/21/34 134/22/34 135/23/34 136/24/34
v -0.0400 -0.0400 -0.6000
v 0.0400 -0.0400 -0.6000
v 0.0400 0.0500 -0.6000
v -0.0400 0.0500 -0.6000
vn 0 0 1
f 137/21/35 138/22/35 139/23/35 140/24/35
v 0.0400 -0.0400 -0.6200
v -0.0400 -0.0400 -0.6200
v -0.0400 0.0500 -0.6200
v 0.0400 0.0500 -0.6200
vn 0 0 -1
f 141/21/36 142/22/36 143/23/36 144/24/36
vt 0.06250 0.81250
vt 0.18750 0.81250
vt 0.18750 0.93750
vt 0.06250 0.93750
v 0.0400 -0.0400 -0.8200
v 0.0400 -0.0400 -0.8400
v 0.0400 0.0500 -0.8400
v 0.0400 0.0500 -0.8200
vn 1 0 0
f 145/25/37 146/26/37 147/27/37 148/28/37
v -0.0400 -0.0400 -0.8400
v -0.0400 -0.0400 -0.8200
v -0.0400 0.0500 -0.8200
v -0.0400 0.0500 -0.8400
vn -1 0 0
f 149/25/38 150/26/38 151/27/38 152/28/38
v -0.0400 0.0500 -0.8200
v 0.0400 0.0500 -0.8200
v 0.0400 0.0500 -0.8400
v -0.0400 0.0500 -0.8400
vn 0 1 0
f 153/25/39 154/26/39 155/27/39 156/28/39
v -0.0400 -0.0400 -0.8400
v 0.0400 -0.0400 -0.8400
v 0.0400 -0.0400 -0.8200
v -0.0400 -0.0400 -0.8200
vn 0 -1 0
f 157/25/40 158/26/40 159/27/40 160/28/40
v -0.0400 -0.0400 -0.8200
v 0.0400 -0.0400 -0.8200
v 0.0400 0.0500 -0.8200
v -0.0400 0.0500 -0.8200
vn 0 0 1
f 161/25/41 162/26/41 163/27/41 164/28/41
v 0.0400 -0.0400 -0.8400
v -0.0400 -0.0400 -0.8400
v -0.0400 0.0500 -0.8400
v 0.0400 0.0500 -0.8400
vn 0 0 -1
f 165/25/42 166/26/42 167/27/42 168/28/42
o grip
vt 0.56250 0.81250
vt 0.68750 0.81250
vt 0.68750 0.93750
vt 0.56250 0.93750
v 0.0260 -0.1300 0.1300
v 0.0260 -0.1300 0.0600
v 0.0260 -0.0200 0.0600
v 0.0260 -0.0200 0.1300
vn 1 0 0
f 169/29/43 170/30/43 171/31/43 172/32/43
v -0.0260 -0.1300 0.0600
v -0.0260 -0.1300 0.1300
v -0.0260 -0.0200 0.1300
v -0.0260 -0.0200 0.0600
vn -1 0 0
f 173/29/44 174/30/44 175/31/44 176/32/44
v -0.0260 -0.0200 0.1300
v 0.0260 -0.0200 0.1300
v 0.0260 -0.0200 0.0600
v -0.0260 -0.0200 0.0600
vn 0 1 0
f 177/29/45 178/30/45 179/31/45 180/32/45
v -0.0260 -0.1300 0.0600
v 0.0260 -0.1300 0.0600
v 0.0260 -0.1300 0.1300
v -0.0260 -0.1300 0.1300
vn 0 -1 0
f 181/29/46 182/30/46 183/31/46 184/32/46
v -0.0260 -0.1300 0.1300
v 0.0260 -0.1300 0.1300
v 0.0260 -0.0200 0.1300
v -0.0260 -0.0200 0.1300
vn 0 0 1
f 185/29/47 186/30/47 187/31/47 188/32/47
v 0.0260 -0.1300 0.0600
v -0.0260 -0.1300 0.0600
v -0.0260 -0.0200 0.0600
v 0.0260 -0.0200 0.0600
vn 0 0 -1
f 189/29/48 190/30/48 191/31/48 192/32/48
o bolt
vt 0.56250 0.56250
vt 0.68750 0.56250
vt 0.68750 0.68750
vt 0.56250 0.68750
v 0.0850 0.0350 0.1000
v 0.0850 0.0350 0.0600
v 0.0850 0.0550 0.0600
v 0.0850 0.0550 0.1000
vn 1 0 0
f 193/33/49 194/34/49 195/35/49 196/36/49
v 0.0320 0.0350 0.0600
v 0.0320 0.0350 0.1000
v 0.0320 0.0550 0.1000
v 0.0320 0.0550 0.0600
vn -1 0 0
f 197/33/50 198/34/50 199/35/50 200/36/50
v 0.0320 0.0550 0.1000
v 0.0850 0.0550 0.1000
v 0.0850 0.0550 0.0600
v 0.0320 0.0550 0.0600
vn 0 1 0
f 201/33/51 202/34/51 203/35/51 204/36/51
v 0.0320 0.0350 0.0600
v 0.0850 0.0350 0.0600
v 0.0850 0.0350 0.1000
v 0.0320 0.0350 0.1000
vn 0 -1 0
f 205/33/52 206/34/52 207/35/52 208/36/52
v 0.0320 0.0350 0.1000
v 0.0850 0.0350 0.1000
v 0.0850 0.0550 0.1000
v 0.0320 0.0550 0.1000
vn 0 0 1
f 209/33/53 210/34/53 211/35/53 212/36/53
v 0.0850 0.0350 0.0600
v 0.0320 0.0350 0.0600
v 0.0320 0.0550 0.0600
v 0.0850 0.0550 0.0600
vn 0 0 -1
f 213/33/54 214/34/54 215/35/54 216/36/54
vt 0.56250 0.56250
vt 0.68750 0.56250
vt 0.68750 0.68750
vt 0.56250 0.68750
v 0.1000 0.0250 0.1000
v 0.1000 0.0250 0.0600
v 0.1000 0.0650 0.0600
v 0.1000 0.0650 0.1000
vn 1 0 0
f 217/37/55 218/38/55 219/39/55 220/40/55
v 0.0800 0.0250 0.0600
v 0.0800 0.0250 0.1000
v 0.0800 0.0650 0.1000
v 0.0800 0.0650 0.0600
vn -1 0 0
f 221/37/56 222/38/56 223/39/56 224/40/56
v 0.0800 0.0650 0.1000
v 0.1000 0.0650 0.1000
v 0.1000 0.0650 0.0600
v 0.0800 0.0650 0.0600
vn 0 1 0
f 225/37/57 226/38/57 227/39/57 228/40/57
v 0.0800 0.0250 0.0600
v 0.1000 0.0250 0.0600
v 0.1000 0.0250 0.1000
v 0.0800 0.0250 0.1000
vn 0 -1 0
f 229/37/58 230/38/58 231/39/58 232/40/58
v 0.0800 0.0250 0.1000
v 0.1000 0.0250 0.1000
v 0.1000 0.0650 0.1000
v 0.0800 0.0650 0.1000
vn 0 0 1
f 233/37/59 234/38/59 235/39/59 236/40/59
v 0.1000 0.0250 0.0600
v 0.0800 0.0250 0.0600
v 0.0800 0.0650 0.0600
v 0.1000 0.0650 0.0600
vn 0 0 -1
f 237/37/60 238/38/60 239/39/60 240/40/60
o bayonet_lug
vt 0.06250 0.81250
vt 0.18750 0.81250
vt 0.18750 0.93750
vt 0.06250 0.93750
v 0.0120 -0.0300 -0.8600
v 0.0120 -0.0300 -0.9000
v 0.0120 0.0000 -0.9000
v 0.0120 0.0000 -0.8600
vn 1 0 0
f 241/41/61 242/42/61 243/43/61 244/44/61
v -0.0120 -0.0300 -0.9000
v -0.0120 -0.0300 -0.8600
v -0.0120 0.0000 -0.8600
v -0.0120 0.0000 -0.9000
vn -1 0 0
f 245/41/62 246/42/62 247/43/62 248/44/62
v -0.0120 0.0000 -0.8600
v 0.0120 0.0000 -0.8600
v 0.0120 0.0000 -0.9000
v -0.0120 0.0000 -0.9000
vn 0 1 0
f 249/41/63 250/42/63 251/43/63 252/44/63
v -0.0120 -0.0300 -0.9000
v 0.0120 -0.0300 -0.9000
v 0.0120 -0.0300 -0.8600
v -0.0120 -0.0300 -0.8600
vn 0 -1 0
f 253/41/64 254/42/64 255/43/64 256/44/64
v -0.0120 -0.0300 -0.8600
v 0.0120 -0.0300 -0.8600
v 0.0120 0.0000 -0.8600
v -0.0120 0.0000 -0.8600
vn 0 0 1
f 257/41/65 258/42/65 259/43/65 260/44/65
v 0.0120 -0.0300 -0.9000
v -0.0120 -0.0300 -0.9000
v -0.0120 0.0000 -0.9000
v 0.0120 0.0000 -0.9000
vn 0 0 -1
f 261/41/66 262/42/66 263/43/66 264/44/66
o iron_sight
vt 0.31250 0.81250
vt 0.43750 0.81250
vt 0.43750 0.93750
vt 0.31250 0.93750
v -0.0040 0.0800 -0.0400
v -0.0040 0.0800 -0.0600
v -0.0040 0.1100 -0.0600
v -0.0040 0.1100 -0.0400
vn 1 0 0
f 265/45/67 266/46/67 267/47/67 268/48/67
v -0.0140 0.0800 -0.0600
v -0.0140 0.0800 -0.0400
v -0.0140 0.1100 -0.0400
v -0.0140 0.1100 -0.0600
vn -1 0 0
f 269/45/68 270/46/68 271/47/68 272/48/68
v -0.0140 0.1100 -0.0400
v -0.0040 0.1100 -0.0400
v -0.0040 0.1100 -0.0600
v -0.0140 0.1100 -0.0600
vn 0 1 0
f 273/45/69 274/46/69 275/47/69 276/48/69
v -0.0140 0.0800 -0.0600
v -0.0040 0.0800 -0.0600
v -0.0040 0.0800 -0.0400
v -0.0140 0.0800 -0.0400
vn 0 -1 0
f 277/45/70 278/46/70 279/47/70 280/48/70
v -0.0140 0.0800 -0.0400
v -0.0040 0.0800 -0.0400
v -0.0040 0.1100 -0.0400
v -0.0140 0.1100 -0.0400
vn 0 0 1
f 281/45/71 282/46/71 283/47/71 284/48/71
v -0.0040 0.0800 -0.0600
v -0.0140 0.0800 -0.0600
v -0.0140 0.1100 -0.0600
v -0.0040 0.1100 -0.0600
vn 0 0 -1
f 285/45/72 286/46/72 287/47/72 288/48/72
vt 0.31250 0.81250
vt 0.43750 0.81250
vt 0.43750 0.93750
vt 0.31250 0.93750
v 0.0140 0.0800 -0.0400
v 0.0140 0.0800 -0.0600
v 0.0140 0.1100 -0.0600
v 0.0140 0.1100 -0.0400
vn 1 0 0
f 289/49/73 290/50/73 291/51/73 292/52/73
v 0.0040 0.0800 -0.0600
v 0.0040 0.0800 -0.0400
v 0.0040 0.1100 -0.0400
v 0.0040 0.1100 -0.0600
vn -1 0 0
f 293/49/74 294/50/74 295/51/74 296/52/74
v 0.0040 0.1100 -0.0400
v 0.0140 0.1100 -0.0400
v 0.0140 0.1100 -0.0600
v 0.0040 0.1100 -0.0600
vn 0 1 0
f 297/49/75 298/50/75 299/51/75 300/52/75
v 0.0040 0.0800 -0.0600
v 0.0140 0.0800 -0.0600
v 0.0140 0.0800 -0.0400
v 0.0040 0.0800 -0.0400
vn 0 -1 0
f 301/49/76 302/50/76 303/51/76 304/52/76
v 0.0040 0.0800 -0.0400
v 0.0140 0.0800 -0.0400
v 0.0140 0.1100 -0.0400
v 0.0040 0.1100 -0.0400
vn 0 0 1
f 305/49/77 306/50/77 307/51/77 308/52/77
v 0.0140 0.0800 -0.0600
v 0.0040 0.0800 -0.0600
v 0.0040 0.1100 -0.0600
v 0.0140 0.1100 -0.0600
vn 0 0 -1
f 309/49/78 310/50/78 311/51/78 312/52/78
vt 0.31250 0.81250
vt 0.43750 0.81250
vt 0.43750 0.93750
vt 0.31250 0.93750
v 0.0040 0.0520 -0.9100
v 0.0040 0.0520 -0.9300
v 0.0040 0.1000 -0.9300
v 0.0040 0.1000 -0.9100
vn 1 0 0
f 313/53/79 314/54/79 315/55/79 316/56/79
v -0.0040 0.0520 -0.9300
v -0.0040 0.0520 -0.9100
v -0.0040 0.1000 -0.9100
v -0.0040 0.1000 -0.9300
vn -1 0 0
f 317/53/80 318/54/80 319/55/80 320/56/80
v -0.0040 0.1000 -0.9100
v 0.0040 0.1000 -0.9100
v 0.0040 0.1000 -0.9300
v -0.0040 0.1000 -0.9300
vn 0 1 0
f 321/53/81 322/54/81 323/55/81 324/56/81
v -0.0040 0.0520 -0.9300
v 0.0040 0.0520 -0.9300
v 0.0040 0.0520 -0.9100
v -0.0040 0.0520 -0.9100
vn 0 -1 0
f 325/53/82 326/54/82 327/55/82 328/56/82
v -0.0040 0.0520 -0.9100
v 0.0040 0.0520 -0.9100
v 0.0040 0.1000 -0.9100
v -0.0040 0.1000 -0.9100
vn 0 0 1
f 329/53/83 330/54/83 331/55/83 332/56/83
v 0.0040 0.0520 -0.9300
v -0.0040 0.0520 -0.9300
v -0.0040 0.1000 -0.9300
v 0.0040 0.1000 -0.9300
vn 0 0 -1
f 333/53/84 334/54/84 335/55/84 336/56/84
